<?xml version="1.0" encoding="UTF-8"?>
<svg version="1.1" xmlns="http://www.w3.org/2000/svg" width="451" height="513">
<path d="M0 0 C7.09175127 4.2946468 14.24211358 8.48492504 21.40234375 12.6640625 C31.38954103 18.49908662 41.33589087 24.39650398 51.24487305 30.36376953 C59.03256494 35.0510054 66.84556329 39.69405191 74.6663208 44.32577515 C86.93932644 51.59476012 99.17171174 58.92515754 111.34082031 66.36694336 C116.95635509 69.79499356 122.59526926 73.15225695 128.32470703 76.38598633 C145.50351155 86.14337484 156.47242037 98.91463455 161.90234375 118.1640625 C162.88070042 122.95362018 163.05069286 127.62108361 163.04951477 132.49131775 C163.05319146 133.31482194 163.05686815 134.13832613 163.06065625 134.98678499 C163.07164438 137.73851086 163.07552867 140.49019889 163.0793457 143.24194336 C163.08561417 145.21846637 163.09226131 147.19498822 163.09925842 149.17150879 C163.12026061 155.65729966 163.1306592 162.14309065 163.140625 168.62890625 C163.14467439 170.86666946 163.14879137 173.10443255 163.15297508 175.34219551 C163.17202058 185.8602084 163.18625135 196.37821432 163.19458705 206.89624113 C163.20434869 219.01161212 163.23064298 231.1267999 163.27108794 243.24210638 C163.30132074 252.62242817 163.31606282 262.00269765 163.31936806 271.38306719 C163.3217109 276.97770456 163.33057098 282.57214606 163.35582924 288.16673088 C163.37923968 293.43715356 163.38329133 298.70725319 163.37306786 303.97771454 C163.37257548 305.90166109 163.37880679 307.82562426 163.3926239 309.74952126 C163.53115479 330.19914381 159.73057661 348.18731808 144.87304688 363.44775391 C141.99006986 366.19790327 138.86710029 368.3112482 135.4921875 370.4375 C134.88506927 370.82100616 134.27795105 371.20451233 133.6524353 371.59963989 C127.49916967 375.46419027 121.26109777 379.18701637 115.00134277 382.87579346 C112.95027036 384.08448151 110.90120606 385.29651714 108.85253906 386.50927734 C105.97241957 388.21382026 103.09155481 389.91709139 100.20996094 391.61914062 C93.35354285 395.6692378 86.50176819 399.72715081 79.65234375 403.7890625 C78.98952393 404.18192444 78.3267041 404.57478638 77.64379883 404.97955322 C67.65015082 410.9051063 57.71214226 416.91693802 47.79602051 422.97109985 C38.33049969 428.74478554 28.76719998 434.32988608 19.1472168 439.84155273 C12.50227927 443.65171163 5.90030168 447.52276078 -0.66015625 451.4765625 C-1.46453125 451.95971924 -2.26890625 452.44287598 -3.09765625 452.94067383 C-6.97294281 455.27085691 -10.83686599 457.61758276 -14.6875 459.98828125 C-22.56792562 464.79562519 -30.04110334 468.92805021 -39.09765625 471.1640625 C-39.86464844 471.35355469 -40.63164062 471.54304688 -41.421875 471.73828125 C-66.25582794 475.68996135 -84.83536414 463.67511968 -105.1953125 451.328125 C-112.28706377 447.0334782 -119.43742608 442.84319996 -126.59765625 438.6640625 C-136.58485353 432.82903838 -146.53120337 426.93162102 -156.44018555 420.96435547 C-164.22787744 416.2771196 -172.04087579 411.63407309 -179.8616333 407.00234985 C-192.13379417 399.73386522 -204.3642353 392.40228446 -216.53393555 384.96337891 C-222.16995077 381.52394142 -227.82882187 378.14964001 -233.57104492 374.89086914 C-250.18272081 365.41921688 -261.38407797 352.69423609 -266.71302795 334.04743958 C-268.8285069 325.25611957 -268.52525247 316.39129983 -268.50170898 307.4050293 C-268.50742055 305.42761857 -268.51438784 303.45021114 -268.52250671 301.47280884 C-268.54036785 296.13172552 -268.53928283 290.79080713 -268.53356433 285.44970298 C-268.53046175 280.976912 -268.5365769 276.50415222 -268.54260308 272.03136569 C-268.55662406 261.471486 -268.5551077 250.91168724 -268.54370117 240.35180664 C-268.53222687 229.48975354 -268.54628973 218.62794756 -268.57309765 207.76592702 C-268.59531416 198.4109457 -268.60187851 189.0560416 -268.59602123 179.7010358 C-268.59266414 174.12663115 -268.59498318 168.55238479 -268.61227226 162.97800255 C-268.62783406 157.73209261 -268.62368411 152.48654623 -268.60496712 147.24065018 C-268.60130644 145.32638553 -268.60431518 143.41209338 -268.61485291 141.49785423 C-268.71854892 121.0867695 -264.89404342 103.10809764 -250.06835938 87.88037109 C-247.18538236 85.13022173 -244.06241279 83.0168768 -240.6875 80.890625 C-240.08038177 80.50711884 -239.47326355 80.12361267 -238.8477478 79.72848511 C-232.69448217 75.86393473 -226.45641027 72.14110863 -220.19665527 68.45233154 C-218.14558286 67.24364349 -216.09651856 66.03160786 -214.04785156 64.81884766 C-211.16773207 63.11430474 -208.28686731 61.41103361 -205.40527344 59.70898438 C-198.54885535 55.6588872 -191.69708069 51.60097419 -184.84765625 47.5390625 C-184.18483643 47.14620056 -183.5220166 46.75333862 -182.83911133 46.34857178 C-172.84546332 40.4230187 -162.90745476 34.41118698 -152.99133301 28.35702515 C-143.52581219 22.58333946 -133.96251248 16.99823892 -124.3425293 11.48657227 C-117.69759177 7.67641337 -111.09561418 3.80536422 -104.53515625 -0.1484375 C-103.32859375 -0.87317261 -103.32859375 -0.87317261 -102.09765625 -1.61254883 C-98.22236969 -3.94273191 -94.35844651 -6.28945776 -90.5078125 -8.66015625 C-82.62738688 -13.46750019 -75.15420916 -17.59992521 -66.09765625 -19.8359375 C-65.33066406 -20.02542969 -64.56367188 -20.21492188 -63.7734375 -20.41015625 C-38.93948456 -24.36183635 -20.35994836 -12.34699468 0 0 Z M-85.09765625 1.8515625 C-86.21358154 2.50656738 -87.32950684 3.16157227 -88.47924805 3.83642578 C-97.85206445 9.34871689 -107.13650061 15.01123912 -116.4152832 20.67993164 C-124.81848402 25.80946589 -133.28194356 30.82727503 -141.78515625 35.7890625 C-151.94981929 41.72102082 -162.06917064 47.72137923 -172.15283203 53.79052734 C-178.63903484 57.69300592 -185.14051454 61.5677289 -191.66015625 65.4140625 C-192.52141113 65.92380615 -193.38266602 66.4335498 -194.27001953 66.95874023 C-199.21022071 69.88053158 -204.16012196 72.78463614 -209.12257385 75.66842651 C-212.00677726 77.3470504 -214.88598854 79.03412916 -217.76461792 80.72229004 C-219.17484066 81.54670018 -220.5871623 82.36753233 -222.0017395 83.18444824 C-237.79366212 92.30857595 -249.37247664 102.12666868 -255.09765625 120.1640625 C-256.19298325 124.52812608 -256.24591954 128.79899569 -256.24482727 133.27062988 C-256.24850396 134.08244012 -256.25218065 134.89425036 -256.25596875 135.73066092 C-256.26697439 138.44870227 -256.27084416 141.16670535 -256.2746582 143.88476562 C-256.28092533 145.83482992 -256.28757235 147.78489303 -256.29457092 149.73495483 C-256.31558833 156.13839897 -256.32597281 162.54184327 -256.3359375 168.9453125 C-256.33998626 171.15309156 -256.34410322 173.36087049 -256.34828758 175.56864929 C-256.36733606 185.94463448 -256.38156646 196.32061258 -256.38989955 206.69661188 C-256.39966371 218.65580257 -256.42596332 230.61480776 -256.46640044 242.57393312 C-256.49661369 251.82851454 -256.51137346 261.08304295 -256.51468056 270.33767271 C-256.51702555 275.85960342 -256.52591395 281.3813359 -256.55114174 286.9032135 C-256.57451792 292.10385208 -256.5786174 297.30416324 -256.56838036 302.50484085 C-256.56788716 304.40543841 -256.57414312 306.30605262 -256.5879364 308.20660019 C-256.69082321 323.23352395 -255.04966154 335.53106233 -246.09765625 348.1640625 C-245.38029297 349.19273437 -245.38029297 349.19273437 -244.6484375 350.2421875 C-241.27554957 354.55812469 -237.31802191 357.50885369 -232.7109375 360.40234375 C-232.0959993 360.79279877 -231.4810611 361.18325378 -230.8474884 361.58554077 C-225.00237696 365.27248945 -219.0602215 368.78459844 -213.08041382 372.24871826 C-209.91520997 374.08294063 -206.75664858 375.92854443 -203.59765625 377.7734375 C-202.9603508 378.14540253 -202.32304535 378.51736755 -201.66642761 378.90060425 C-195.67792011 382.40014896 -189.72676465 385.96050555 -183.78515625 389.5390625 C-177.00555671 393.622131 -170.21914861 397.69271481 -163.41015625 401.7265625 C-162.74809677 402.11878998 -162.08603729 402.51101746 -161.40391541 402.91513062 C-158.68100188 404.52799021 -155.95795684 406.14062771 -153.2348938 407.75323486 C-144.27312697 413.06289319 -135.3472914 418.42664405 -126.45700073 423.85507202 C-113.69453439 431.64783204 -100.80927839 439.1887172 -87.82177734 446.60009766 C-85.43048947 447.97297722 -83.05179026 449.36386135 -80.6796875 450.76953125 C-68.94244609 457.71045619 -60.70714977 459.64819468 -47.09765625 459.1640625 C-48.26554687 458.05224609 -48.26554687 458.05224609 -49.45703125 456.91796875 C-51.67584261 454.6039717 -53.01273881 452.94674669 -54.34765625 450.1015625 C-54.6621875 449.45058594 -54.97671875 448.79960937 -55.30078125 448.12890625 C-57.16075417 443.54279654 -57.24380895 439.21398068 -57.23809814 434.30941772 C-57.24106927 433.51267942 -57.24404039 432.71594112 -57.24710155 431.89505923 C-57.25578111 429.22218382 -57.25729618 426.54935323 -57.25878906 423.87646484 C-57.26341784 421.96108912 -57.26844259 420.04571431 -57.27383423 418.13034058 C-57.28695641 412.92346084 -57.2934031 407.71659399 -57.29784489 402.5097003 C-57.30077655 399.25522024 -57.30488159 396.0007437 -57.30934906 392.74626541 C-57.32302493 382.55982809 -57.33269055 372.37339881 -57.33655095 362.18695295 C-57.34102886 350.43603702 -57.35856404 338.68523757 -57.38755155 326.93435705 C-57.40918829 317.84714406 -57.41925634 308.75996379 -57.42059207 299.67272532 C-57.42163888 294.24760563 -57.42752003 288.82259542 -57.44541168 283.3975029 C-57.46192625 278.29049346 -57.4640314 273.18367539 -57.45527267 268.07664871 C-57.45450405 266.20704891 -57.45882184 264.33743869 -57.46873093 262.46786499 C-57.54520649 247.13377946 -55.95873999 234.51752074 -45.16015625 222.6640625 C-34.94217429 213.16967153 -21.73750266 206.42239936 -9.91870117 199.18969727 C-3.44697784 195.22894495 2.99932601 191.23488772 9.40234375 187.1640625 C17.85899779 181.79290716 26.3885594 176.5441852 34.92651367 171.3034668 C43.38172464 166.1098073 51.80398976 160.86544956 60.21362305 155.59838867 C67.44317072 151.07164293 74.68954505 146.57300778 81.94799805 142.09277344 C86.69775983 139.15804927 91.43507586 136.20479621 96.16015625 133.23046875 C97.75053711 132.23080078 97.75053711 132.23080078 99.37304688 131.2109375 C101.40734476 129.93115629 103.44002281 128.64879487 105.47070312 127.36328125 C128.31364214 113.00217477 128.31364214 113.00217477 139.71484375 114.60546875 C143.23467526 115.50428287 145.87998178 117.17058971 148.90234375 119.1640625 C144.14555427 102.09558261 133.45590242 92.75956607 118.43203735 84.26800537 C115.20935064 82.44613165 112.00682344 80.58923393 108.80078125 78.73828125 C108.14251846 78.35955872 107.48425568 77.98083618 106.80604553 77.59063721 C100.62617512 74.02739528 94.53283334 70.32966176 88.45074463 66.60269165 C77.88297701 60.12756059 67.22128288 53.83925634 56.46655273 47.67822266 C48.15730554 42.91048772 39.92938914 38.019134 31.72460938 33.07421875 C21.70929086 27.03878663 11.6636625 21.05517297 1.59790039 15.10424805 C0.25140614 14.3078792 -1.09503008 13.51141222 -2.44140625 12.71484375 C-3.09698013 12.32699203 -3.75255402 11.93914032 -4.42799377 11.53953552 C-8.49489826 9.12847334 -12.53730409 6.68098592 -16.56640625 4.20703125 C-40.95238979 -10.70599019 -59.81494719 -13.25526592 -85.09765625 1.8515625 Z " fill="#FEFEFE" transform="translate(278.09765625,30.8359375)"/>
<path d="M0 0 C0 4.95 0 9.9 0 15 C1.32 14.34 2.64 13.68 4 13 C6.796875 12.8046875 6.796875 12.8046875 9.75 12.875 C10.73484375 12.89304687 11.7196875 12.91109375 12.734375 12.9296875 C13.85585938 12.96449219 13.85585938 12.96449219 15 13 C16.34799697 17.50180119 15.52972156 20.41083532 14.0625 24.8125 C13.49208984 26.55466797 13.49208984 26.55466797 12.91015625 28.33203125 C12.60980469 29.21246094 12.30945313 30.09289062 12 31 C11.24976563 31.00257813 10.49953125 31.00515625 9.7265625 31.0078125 C1.82421698 31.30638979 -3.87597641 32.85813113 -10 38 C-12.88914855 41.27087543 -13.9102508 44.33809965 -14.5 48.6875 C-13.89767867 52.67787883 -13.18580668 53.59775742 -10 56 C-6.60899496 56.51513155 -6.60899496 56.51513155 -2.875 56.4375 C3.94954045 56.65457291 9.51352464 57.72666959 15 62 C19.5747807 67.46771918 20.43317565 73.78347839 20.33203125 80.6796875 C19.09382306 93.06176939 13.98895515 103.58189367 6 113 C5.25234375 113.44085938 4.5046875 113.88171875 3.734375 114.3359375 C1.57233515 116.04045539 1.57233515 116.04045539 1.70703125 119.80078125 C1.73683199 121.30480315 1.77222308 122.80872218 1.8125 124.3125 C1.72566043 132.05664144 1.72566043 132.05664144 -0.9140625 135.48828125 C-3.29828896 137.11530224 -5.20941029 138.25896945 -8 139 C-9.32 138.67 -10.64 138.34 -12 138 C-12 133.71 -12 129.42 -12 125 C-14.97 125.99 -14.97 125.99 -18 127 C-20.95703125 127.23046875 -20.95703125 127.23046875 -23.8125 127.1875 C-25.24529297 127.17783203 -25.24529297 127.17783203 -26.70703125 127.16796875 C-29 127 -29 127 -30 126 C-30.41979273 120.12290177 -30.05123941 114.20304631 -27 109 C-24.2148613 107.84246345 -21.8348535 108.00971669 -18.875 108.25 C-12.53360734 108.31278607 -7.0778828 105.68236048 -2.328125 101.54296875 C1.60461676 97.15911837 3.05944486 92.58004836 3.3125 86.8125 C3.33663069 83.12527782 3.33663069 83.12527782 1.625 81.0625 C-1.99286348 78.69697388 -4.81437659 78.83747199 -9.125 78.6875 C-16.80742271 78.28205656 -22.12438481 77.09681636 -27.4375 71.375 C-31.61807621 65.02052416 -30.74027783 56.39480112 -30 49 C-27.77151461 40.28777477 -22.94383103 30.94050703 -15.6875 25.4375 C-13.05875491 23.07028823 -12.9943778 21.92574017 -12.71875 18.28515625 C-12.70006751 16.85685503 -12.68990394 15.42842138 -12.6875 14 C-12.65574861 6.80220353 -12.65574861 6.80220353 -10.05859375 3.625 C-6.60788507 1.32083498 -4.18769107 0 0 0 Z " fill="#2D353B" transform="translate(290,281)"/>
<path d="M0 0 C0.13547465 1.91470844 0.23220869 3.83218481 0.3125 5.75 C0.37050781 6.81734375 0.42851562 7.8846875 0.48828125 8.984375 C0 12 0 12 -1.93359375 14.03515625 C-6.03733487 16.66468718 -10.17706348 19.21110222 -14.375 21.6875 C-16.16299056 22.74700754 -17.95074863 23.80690753 -19.73828125 24.8671875 C-20.62338379 25.39151367 -21.50848633 25.91583984 -22.42041016 26.45605469 C-24.81064529 27.88666674 -27.18029097 29.34475633 -29.54296875 30.8203125 C-30.22633301 31.24352783 -30.90969727 31.66674316 -31.61376953 32.1027832 C-32.88659783 32.89291904 -34.15476117 33.69063358 -35.41748047 34.49682617 C-37.12890625 35.55078125 -37.12890625 35.55078125 -40 37 C-40.99 36.67 -41.98 36.34 -43 36 C-43.13560864 34.25215533 -43.23227209 32.50126074 -43.3125 30.75 C-43.37050781 29.77546875 -43.42851562 28.8009375 -43.48828125 27.796875 C-43 25 -43 25 -41.13671875 23.03125 C-36.66630603 20.13633765 -32.10601462 17.42289424 -27.5 14.75 C-20.03431492 10.39046242 -12.63713622 5.96557757 -5.36328125 1.29296875 C-3 0 -3 0 0 0 Z " fill="#52AB2B" transform="translate(372,366)"/>
</svg>
